# Blender v2.93.6 OBJ File: 'projekt.blend'
# www.blender.org
mtllib left_border.mtl
o Plane.003
v -10.000000 -11.000000 -3.000000
v -10.000000 -11.000000 7.000000
v -10.000000 11.000000 -3.000000
v -10.000000 11.000000 7.000000
v -11.000000 -11.000000 7.000000
v -11.000000 -11.000000 -3.000000
v -11.000000 11.000000 -3.000000
v -11.000000 11.000000 7.000000
vt 0.000000 0.000000
vt 0.000000 0.000000
vt 0.000000 0.000000
vt 0.000000 0.000000
vt 0.000000 0.000000
vt 0.000000 0.000000
vt 0.000000 0.000000
vt 0.000000 0.000000
vn 1.0000 0.0000 0.0000
vn -1.0000 0.0000 0.0000
vn 0.0000 -1.0000 0.0000
vn 0.0000 0.0000 1.0000
vn 0.0000 0.0000 -1.0000
vn 0.0000 1.0000 0.0000
usemtl None
s off
f 1/1/1 3/2/1 4/3/1 2/4/1
f 6/5/2 5/6/2 8/7/2 7/8/2
f 2/4/3 5/6/3 6/5/3 1/1/3
f 4/3/4 8/7/4 5/6/4 2/4/4
f 1/1/5 6/5/5 7/8/5 3/2/5
f 3/2/6 7/8/6 8/7/6 4/3/6
