# Blender v2.93.6 OBJ File: 'projekt.blend'
# www.blender.org
mtllib back_border.mtl
o Plane.002
v -11.000000 -10.000000 -3.000000
v -11.000000 -10.000000 7.000000
v 11.000000 -10.000000 -3.000000
v 11.000000 -10.000000 7.000000
v -11.000000 -11.000000 7.000000
v -11.000000 -11.000000 -3.000000
v 11.000000 -11.000000 -3.000000
v 11.000000 -11.000000 7.000000
vt 0.000000 0.000000
vt 0.000000 0.000000
vt 0.000000 0.000000
vt 0.000000 0.000000
vt 0.000000 0.000000
vt 0.000000 0.000000
vt 0.000000 0.000000
vt 0.000000 0.000000
vn 0.0000 1.0000 0.0000
vn 0.0000 -1.0000 0.0000
vn 0.0000 0.0000 1.0000
vn 0.0000 0.0000 -1.0000
vn 1.0000 0.0000 0.0000
vn -1.0000 0.0000 0.0000
usemtl None
s off
f 1/1/1 2/2/1 4/3/1 3/4/1
f 6/5/2 7/6/2 8/7/2 5/8/2
f 4/3/3 2/2/3 5/8/3 8/7/3
f 1/1/4 3/4/4 7/6/4 6/5/4
f 3/4/5 4/3/5 8/7/5 7/6/5
f 2/2/6 1/1/6 6/5/6 5/8/6
