# Blender v2.93.6 OBJ File: 'projekt.blend'
# www.blender.org
mtllib fich_tail.mtl
o Cube.001_Cube.007
v 0.026576 -0.581243 -0.042900
v 0.026576 -0.581243 0.005972
v 0.023419 -0.641633 -0.053673
v 0.023419 -0.641633 0.016745
v 0.030144 -0.729771 -0.073911
v 0.030144 -0.729771 0.032598
v 0.015220 -0.791804 -0.073911
v 0.015220 -0.791804 0.032598
v 0.026576 -0.560961 -0.042900
v 0.026576 -0.560961 0.005972
v -0.026576 -0.581243 -0.042900
v -0.026576 -0.581243 0.005972
v 0.000000 -0.581243 -0.090807
v 0.000000 -0.581243 0.044600
v -0.023419 -0.641633 -0.053673
v -0.023419 -0.641633 0.016745
v 0.000000 -0.641633 -0.113641
v 0.000000 -0.641633 0.067434
v -0.030144 -0.729771 -0.073911
v -0.030144 -0.729771 0.032598
v 0.000000 -0.729771 -0.189213
v 0.000000 -0.729771 0.130253
v -0.015220 -0.791804 -0.073911
v -0.015220 -0.791804 0.032598
v 0.000000 -0.826618 -0.197401
v 0.000000 -0.842777 0.149159
v 0.000000 -0.791804 0.032598
v 0.000000 -0.791804 -0.073911
v -0.026576 -0.560961 -0.042900
v -0.026576 -0.560961 0.005972
v 0.000000 -0.560961 -0.090807
v 0.000000 -0.560961 0.044600
vt 0.762618 0.370468
vt 0.710901 0.373241
vt 0.685583 0.289158
vt 0.747895 0.285093
vt 0.816923 0.368559
vt 0.827652 0.282112
vt 0.877690 0.367099
vt 0.899871 0.280980
vt 0.727601 0.160283
vt 0.615177 0.168475
vt 0.580474 0.018803
vt 0.721911 0.067889
vt 0.846506 0.155700
vt 0.978499 0.152029
vt 0.847018 0.062953
vt 0.845745 0.041449
vt 0.988285 0.018803
vt 0.722986 0.045458
vt 0.763391 0.398898
vt 0.711813 0.401516
vt 0.817446 0.397050
vt 0.878124 0.395564
vt 0.762618 0.370468
vt 0.747895 0.285093
vt 0.816923 0.368559
vt 0.827652 0.282112
vt 0.727601 0.160283
vt 0.721911 0.067889
vt 0.846506 0.155700
vt 0.847018 0.062953
vt 0.763391 0.398898
vt 0.817446 0.397050
vn 0.9655 0.0109 0.2601
vn 0.0000 0.1160 0.9932
vn 0.0000 0.3751 0.9270
vn 0.9726 0.0849 0.2163
vn 0.9753 0.0062 -0.2205
vn 0.9799 0.0796 -0.1828
vn 0.0000 0.1122 -0.9937
vn 0.0000 0.4241 -0.9056
vn 0.9897 -0.0064 0.1428
vn 0.0000 0.1093 0.9940
vn 0.0000 -0.7655 0.6434
vn 0.7158 -0.6972 -0.0405
vn 0.9918 -0.0085 -0.1271
vn 0.0000 0.0608 -0.9981
vn 0.6930 -0.7208 0.0143
vn 0.0000 -0.9906 0.1369
vn 0.0000 -0.7670 -0.6417
vn 0.0000 -0.9788 -0.2047
vn 0.9549 0.0000 0.2968
vn 0.0000 0.0000 1.0000
vn 0.9681 0.0000 -0.2505
vn 0.0000 0.0000 -1.0000
vn -0.9655 0.0109 0.2601
vn -0.9726 0.0849 0.2163
vn -0.9753 0.0062 -0.2205
vn -0.9799 0.0796 -0.1828
vn -0.9897 -0.0064 0.1428
vn -0.7158 -0.6972 -0.0405
vn -0.9918 -0.0085 -0.1271
vn -0.6930 -0.7208 0.0143
vn -0.9549 0.0000 0.2968
vn -0.9681 0.0000 -0.2505
usemtl Fich
s 1
f 2/1/1 14/2/2 18/3/3 4/4/4
f 1/5/5 2/1/1 4/4/4 3/6/6
f 13/7/7 1/5/5 3/6/6 17/8/8
f 6/9/9 22/10/10 26/11/11 8/12/12
f 17/8/8 3/6/6 5/13/13 21/14/14
f 4/4/4 18/3/3 22/10/10 6/9/9
f 3/6/6 4/4/4 6/9/9 5/13/13
f 7/15/15 28/16/16 25/17/17
f 5/13/13 6/9/9 8/12/12 7/15/15
f 21/14/14 5/13/13 7/15/15 25/17/17
f 27/18/18 8/12/12 26/11/11
f 28/16/16 7/15/15 8/12/12 27/18/18
f 14/2/2 2/1/1 10/19/19 32/20/20
f 2/1/1 1/5/5 9/21/21 10/19/19
f 1/5/5 13/7/7 31/22/22 9/21/21
f 12/23/23 16/24/24 18/3/3 14/2/2
f 11/25/25 15/26/26 16/24/24 12/23/23
f 13/7/7 17/8/8 15/26/26 11/25/25
f 20/27/27 24/28/28 26/11/11 22/10/10
f 17/8/8 21/14/14 19/29/29 15/26/26
f 16/24/24 20/27/27 22/10/10 18/3/3
f 15/26/26 19/29/29 20/27/27 16/24/24
f 23/30/30 25/17/17 28/16/16
f 19/29/29 23/30/30 24/28/28 20/27/27
f 21/14/14 25/17/17 23/30/30 19/29/29
f 27/18/18 26/11/11 24/28/28
f 28/16/16 27/18/18 24/28/28 23/30/30
f 14/2/2 32/20/20 30/31/31 12/23/23
f 12/23/23 30/31/31 29/32/32 11/25/25
f 11/25/25 29/32/32 31/22/22 13/7/7
