# Blender v2.93.6 OBJ File: 'projekt.blend'
# www.blender.org
mtllib front_border.mtl
o Plane.004
v -11.000000 10.000000 -3.000000
v -11.000000 10.000000 7.000000
v 11.000000 10.000000 -3.000000
v 11.000000 10.000000 7.000000
v -11.000000 11.000000 7.000000
v -11.000000 11.000000 -3.000000
v 11.000000 11.000000 -3.000000
v 11.000000 11.000000 7.000000
vt 0.000000 0.000000
vt 0.000000 0.000000
vt 0.000000 0.000000
vt 0.000000 0.000000
vt 0.000000 0.000000
vt 0.000000 0.000000
vt 0.000000 0.000000
vt 0.000000 0.000000
vn 0.0000 -1.0000 0.0000
vn 0.0000 1.0000 0.0000
vn 1.0000 0.0000 0.0000
vn -1.0000 0.0000 0.0000
vn 0.0000 0.0000 1.0000
vn 0.0000 0.0000 -1.0000
usemtl None
s off
f 1/1/1 3/2/1 4/3/1 2/4/1
f 6/5/2 5/6/2 8/7/2 7/8/2
f 3/2/3 7/8/3 8/7/3 4/3/3
f 2/4/4 5/6/4 6/5/4 1/1/4
f 4/3/5 8/7/5 5/6/5 2/4/5
f 1/1/6 6/5/6 7/8/6 3/2/6
